{"title":"R.I.P.D.2013.BRRip.XviD-TODE","uid":9060620,"size":1516797335,"categoryP":"video","categoryS":"movies","magnet":"?xt=urn:btih:4374a9d237a19761157494be8caeb1ab2928268f&amp;dn=R.I.P.D.2013.BRRip.XviD-TODE&amp;tr=udp%3A%2F%2Ftracker.openbittorrent.com%3A80&amp;tr=udp%3A%2F%2Fopen.demonii.com%3A1337&amp;tr=udp%3A%2F%2Ftracker.coppersurfer.tk%3A6969&amp;tr=udp%3A%2F%2Fexodus.desync.com%3A6969","seeders":4,"leechers":0,"uploader":"xxxlavalxxx","files":-1,"time":1382035470,"description":"\n &lt;a href=&quot;\nhttp://www.imdb.com/title/tt0790736/&quot; rel=&quot;nofollow&quot; target=&quot;_NEW&quot;&gt;\nhttp://www.imdb.com/title/tt0790736/&lt;/a&gt;\n\n\nA recently slain cop joins a team of undead police officers working for the Rest in Peace Department and tries to find the man who murdered him. \n\n\n\nDirector:\n Robert Schwentke \n\nWriters:\n Phil Hay (screenplay), Matt Manfredi (screenplay) \n\nStars:\n Jeff Bridges, Ryan Reynolds, Kevin Bacon\n\nGenres:\n  Action |  Comedy |  Crime |  Fantasy \n\nCountry:\n USA \n\n\nThanks: ALLiANCE\n\n\n\nFormat                                   : AVI\nFormat/Info                              : Audio Video Interleave\nFile size                                : 1.41 GiB\nDuration                                 : 1h 35mn\nOverall bit rate                         : 2 108 Kbps\n\nVideo\nID                                       : 0\nFormat                                   : MPEG-4 Visual\nFormat profile                           : Advanced Simple@L5\nFormat settings, BVOP                    : 2\nFormat settings, QPel                    : No\nFormat settings, GMC                     : No warppoints\nFormat settings, Matrix                  : Default (H.263)\nCodec ID                                 : XVID\nCodec ID/Hint                            : XviD\nDuration                                 : 1h 35mn\nBit rate                                 : 1 974 Kbps\nWidth                                    : 720 pixels\nHeight                                   : 304 pixels\nDisplay aspect ratio                     : 2.35:1\nFrame rate                               : 23.976 fps\nColor space                              : YUV\nChroma subsampling                       : 4:2:0\nBit depth                                : 8 bits\nScan type                                : Progressive\nCompression mode                         : Lossy\nBits/(Pixel*Frame)                       : 0.376\nStream size                              : 1.32 GiB (94%)\nWriting library                          : XviD 1.2.1 (UTC 2008-12-04)\n\nAudio\nID                                       : 1\nFormat                                   : MPEG Audio\nFormat version                           : Version 1\nFormat profile                           : Layer 3\nMode                                     : Joint stereo\nCodec ID                                 : 55\nCodec ID/Hint                            : MP3\nDuration                                 : 1h 35mn\nBit rate mode                            : Constant\nBit rate                                 : 128 Kbps\nChannel(s)                               : 2 channels\nSampling rate                            : 48.0 KHz\nCompression mode                         : Lossy\nStream size                              : 87.8 MiB (6%)\nAlignment                                : Aligned on interleaves\nInterleave, duration                     : 167 ms (4.00 video frames)\nInterleave, preload duration             : 216 ms\nTitle                                    : T2_Audio - English\nWriting library                          : LAME3.99r\nEncoding settings                        : -m j -V 4 -q 2 -lowpass 17 -b 128\n\n\n &lt;a href=&quot;\nhttp://i.imgur.com/6CsLwoS.jpg&quot; rel=&quot;nofollow&quot; target=&quot;_NEW&quot;&gt;\nhttp://i.imgur.com/6CsLwoS.jpg&lt;/a&gt; &lt;a href=&quot;\nhttp://i.imgur.com/7B1AF0X.jpg&quot; rel=&quot;nofollow&quot; target=&quot;_NEW&quot;&gt;\nhttp://i.imgur.com/7B1AF0X.jpg&lt;/a&gt; &lt;a href=&quot;\nhttp://i.imgur.com/Mx2hFPA.jpg&quot; rel=&quot;nofollow&quot; target=&quot;_NEW&quot;&gt;\nhttp://i.imgur.com/Mx2hFPA.jpg&lt;/a&gt; &lt;a href=&quot;\nhttp://i.imgur.com/fPvRNJB.jpg&quot; rel=&quot;nofollow&quot; target=&quot;_NEW&quot;&gt;\nhttp://i.imgur.com/fPvRNJB.jpg&lt;/a&gt; &lt;a href=&quot;\nhttp://i.imgur.com/TQ9YLk6.jpg&quot; rel=&quot;nofollow&quot; target=&quot;_NEW&quot;&gt;\nhttp://i.imgur.com/TQ9YLk6.jpg&lt;/a&gt; &lt;a href=&quot;\nhttp://i.imgur.com/X5taXif.jpg&quot; rel=&quot;nofollow&quot; target=&quot;_NEW&quot;&gt;\nhttp://i.imgur.com/X5taXif.jpg&lt;/a&gt;\n\n","torrent":{"xt":"urn:btih:4374a9d237a19761157494be8caeb1ab2928268f","amp;dn":"R.I.P.D.2013.BRRip.XviD-TODE","amp;tr":["udp%3A%2F%2Ftracker.openbittorrent.com%3A80","udp%3A%2F%2Fopen.demonii.com%3A1337","udp%3A%2F%2Ftracker.coppersurfer.tk%3A6969","udp%3A%2F%2Fexodus.desync.com%3A6969"],"infoHash":"4374a9d237a19761157494be8caeb1ab2928268f","infoHashBuffer":{"type":"Buffer","data":[67,116,169,210,55,161,151,97,21,116,148,190,140,174,177,171,41,40,38,143]},"announce":[],"urlList":[]}}